<?xml version="1.0" encoding="utf-8"?>
<!-- Generator: Adobe Illustrator 16.0.0, SVG Export Plug-In . SVG Version: 6.00 Build 0)  -->
<!DOCTYPE svg PUBLIC "-//W3C//DTD SVG 1.1//EN" "http://www.w3.org/Graphics/SVG/1.1/DTD/svg11.dtd">
<svg version="1.1" id="Layer_1" xmlns="http://www.w3.org/2000/svg" xmlns:xlink="http://www.w3.org/1999/xlink" x="0px" y="0px"
     width="1224px" height="792px" viewBox="0 0 1224 792" enable-background="new 0 0 1224 792" xml:space="preserve">
<rect y="0.241" fill="#C3C3C3" width="1224" height="791.759"/>
<g>
    <path fill="#E52620" d="M872.259,792H1012.6c19.978-11.934,42.93-26.946,63.813-42.98l-110.98-111.487l-18.249-18.344
        c-43.688,43.003-88.44,90.222-143.038,105.024l30.414,30.267L872.259,792z"/>
    <path fill="#E52620" d="M560.943,216.138c-46.703,2.109-41.791-57.508-64.857-57.508
        C323.402,263.679,286.714,128.099,190.441,8.379c-60.007-35.317-18.744,55.132-49.844,65.357L290.73,224.583l205.492,206.468
        L309.791,618.367c20.547,17.078,41.674,32.977,61.895,47.861c19.925,26.6,52.459,43.984,80.723,57.605l175.679-174.836
        l80.523,80.144c12.756-46.06,31.301-93.279-43.974-126.994c-34.536-39.576-14.494-157.377-17.669-233.366l-16.561,16.488
        L560.943,216.138z"/>
    <path fill="#FFFFFF" d="M290.73,224.583L140.597,73.736c-4.175,1.376-9.615,1.355-16.826-0.668
        c-83.664-42.333-4.976,118.248-4.976,155.104c-22.855,68.563,31.712,127.896,60.725,190.818
        c8.698,82.272,66.723,146.571,130.272,199.377l186.432-187.316L290.73,224.583z"/>
    <path fill="#FFFFFF" d="M1076.413,749.02c56.295-43.214,97.527-93.817,24.553-111.507c-58.995-33.188,1.307-109.727-77.592-81.389
        c-26.177,14.897-51.015,38.27-76.19,63.064l18.249,18.344L1076.413,749.02z"/>
    <path fill="#FFFFFF" d="M576.208,213.792c-5.703,1.534-10.647,2.135-15.265,2.346l69.464,69.132l16.561-16.488
        C644.713,214.488,630.618,181.491,576.208,213.792z"/>
    <path fill="#FFFFFF" d="M452.408,723.834c50.72,24.458,87.618,36.75,12.672,68.166h407.179l-37.699-37.521l-30.414-30.267
        c-22.898,6.22-47.505,6.789-74.525-1.139c-36.655-26.777-30.404-60.039-21.01-93.933l-80.523-80.144L452.408,723.834z"/>
</g>
</svg>
