<?xml version="1.0" encoding="utf-8"?>
<!-- Generator: Adobe Illustrator 16.0.0, SVG Export Plug-In . SVG Version: 6.00 Build 0)  -->
<!DOCTYPE svg PUBLIC "-//W3C//DTD SVG 1.1//EN" "http://www.w3.org/Graphics/SVG/1.1/DTD/svg11.dtd">
<svg version="1.1" id="Layer_1" xmlns="http://www.w3.org/2000/svg" xmlns:xlink="http://www.w3.org/1999/xlink" x="0px" y="0px"
     width="1224px" height="792px" viewBox="0 0 1224 792" enable-background="new 0 0 1224 792" xml:space="preserve">
<polyline fill="#C3C3C3" points="0,0.241 1224,0.241 1224,792 0,792 "/>
<g>
    <path fill="#FFFFFF" d="M776.084,740.293c21.229,26.426,46.531,43.597,73.992,51.613V584.018
        c-19.561-20.604-41.098-41.867-63.014-63.819l-96.945,96.947C711.35,691.783,704.922,704.422,776.084,740.293z"/>
    <path fill="#FFFFFF" d="M673.063,0H502.671l129.568,129.567C646.945,85.132,660.586,42.508,673.063,0z"/>
    <path fill="#FFFFFF" d="M502.671,0h-52.656C446.249,23.914,439.327,48.162,431,72.159L502.671,0z"/>
    <path fill="#E42620" d="M373.923,221.526c0,78.695,162.845,200.795,213.568,253.072c40.374,32.937,78.063,73.681,96.726,122.674
        c2.204,7.102,4.137,13.67,5.9,19.874l96.945-96.947c-94.938-95.118-196.944-203.265-175.824-327.843
        c7.239-21.461,14.224-42.299,21-62.788L502.671,0L431,72.159C412.56,125.277,387.224,177.172,373.923,221.526z"/>
</g>
</svg>
