<?xml version="1.0" encoding="utf-8"?>
<!-- Generator: Adobe Illustrator 16.0.0, SVG Export Plug-In . SVG Version: 6.00 Build 0)  -->
<!DOCTYPE svg PUBLIC "-//W3C//DTD SVG 1.1//EN" "http://www.w3.org/Graphics/SVG/1.1/DTD/svg11.dtd">
<svg version="1.1" id="Layer_1" xmlns="http://www.w3.org/2000/svg" xmlns:xlink="http://www.w3.org/1999/xlink" x="0px" y="0px"
     width="1224px" height="792px" viewBox="0 0 1224 792" enable-background="new 0 0 1224 792" xml:space="preserve">
<polyline fill="#C3C3C3" points="0,0.241 1224,0.241 1224,792 0,792 "/>
<g>
    <path fill="#F2E500" d="M671.572,420.787c-6.508,41.065-17.129,81.639-24.724,122.633c-16.501,36.1-60.038,105.506-7.136,131.948
        c83.219,20.608,27.589,75.394,115.146,89.268c4.781,0.175,9.375,0.208,13.863,0.175V522.531h14.049
        c-0.658-8.721-2.137-18.04-5.752-28.624c-30.02-56.821-9.201-121.93,10.273-185.067h-18.57V0.582H663.781
        C675.987,140.893,669.584,287.626,671.572,420.787z"/>
    <path fill="#E42620" d="M768.723,764.811c116.223-0.97,133.59-71.867,37.26-153.916c-28.248-37.466-21.049-59.53-23.211-88.363
        h-14.049V764.811z"/>
    <path fill="#E42620" d="M787.293,308.84c10.281-33.347,20.197-66.136,22.045-96.877c-1.363-19.325,4.227-121.292,22.865-211.381
        h-63.48V308.84H787.293z"/>
    <path fill="#E42620" d="M397.296,625.328c-12.111-15.412-26.284-31.22-41.667-47.43v205.505
        c39.796,11.605,84.208,3.551,127.58-25.275C500.572,718.765,427.512,647.549,397.296,625.328z"/>
</g>
</svg>
