<?xml version="1.0" encoding="utf-8"?>
<!-- Generator: Adobe Illustrator 16.0.0, SVG Export Plug-In . SVG Version: 6.00 Build 0)  -->
<!DOCTYPE svg PUBLIC "-//W3C//DTD SVG 1.1//EN" "http://www.w3.org/Graphics/SVG/1.1/DTD/svg11.dtd">
<svg version="1.1" id="Layer_1" xmlns="http://www.w3.org/2000/svg" xmlns:xlink="http://www.w3.org/1999/xlink" x="0px" y="0px"
     width="1224px" height="792px" viewBox="0 0 1224 792" enable-background="new 0 0 1224 792" xml:space="preserve">
<polyline fill="#C3C3C3" points="0,0.241 1224,0.241 1224,792 0,792 "/>
<g>
    <path fill="#F2E500" d="M743.995,325.152c4.005,15.842,8.872,31.541,15.029,47.02c8.591,16.646,16.021,30.785,22.43,43.158"/>
    <path fill="#F2E500" d="M620.791,548.582c-5.197,16.1-11.443,31.258-15.81,46.255l176.473-179.508
        c-6.408-12.373-13.839-26.513-22.43-43.158c-6.157-15.479-11.024-31.178-15.029-47.02L633.164,437.596
        C632.871,474.568,628.878,511.772,620.791,548.582z"/>
    <path fill="#F2E500" d="M410.256,0.241c32.78,22.258,62.327,48.257,88.387,77.181l78.882-77.181H410.256z"/>
    <path fill="#F2E500" d="M709.822,790.335c76.6-77.523,76.318-65.293,83.438-165.025c4.85-22.486,8.973-40.974,12.222-56.663
        L646.829,723.694C669.078,761.34,693.245,798.622,709.822,790.335z"/>
    <path fill="#F2E500" d="M566.944,173.784c19.459,35.423,34.829,73.169,45.864,112.313l112.08-110.613
        c-3.068-48.166-5.913-96.451-15.963-143.682L566.944,173.784z"/>
    <path fill="#E42620" d="M703.747,10.018c-1.5-3.369-3.159-6.539-4.767-9.776H577.524l-78.882,77.181
        c26.472,29.359,49.302,61.774,68.302,96.362L708.926,31.803C707.378,24.51,705.67,17.248,703.747,10.018z"/>
    <path fill="#E42620" d="M633.164,437.596l110.831-112.444c-12.339-48.839-15.888-99.178-19.106-149.667l-112.08,110.613
        C626.585,334.977,633.557,386.041,633.164,437.596z"/>
    <path fill="#E42620" d="M606.47,659.909c10.421,11.365,24.923,37.664,40.359,63.784l158.652-155.047
        c14.803-71.539,11.395-84.937-24.027-153.317L604.981,594.837C598.788,616.138,596.413,637.098,606.47,659.909z"/>
</g>
</svg>
