<?xml version="1.0" encoding="utf-8"?>
<!-- Generator: Adobe Illustrator 16.0.0, SVG Export Plug-In . SVG Version: 6.00 Build 0)  -->
<!DOCTYPE svg PUBLIC "-//W3C//DTD SVG 1.1//EN" "http://www.w3.org/Graphics/SVG/1.1/DTD/svg11.dtd">
<svg version="1.1" id="Layer_1" xmlns="http://www.w3.org/2000/svg" xmlns:xlink="http://www.w3.org/1999/xlink" x="0px" y="0px"
     width="1224px" height="792px" viewBox="0 0 1224 792" enable-background="new 0 0 1224 792" xml:space="preserve">
<rect y="0.241" fill="#C3C3C3" width="1224" height="791.759"/>
<g>
    <path fill="#FFFFFF" d="M916.617,570.849H304.961V254.699c-36.149,16.983-73.654,29.669-112.327,43.524
        C97.738,348.968,43.071,523.318,7.757,611.494c0,74.739,108.958,7.972,144.773,50.87c9.463,51.901,17.642,89.471,30.703,129.636
        H350h872.45V48.634c-102.887-1.42-204.021-17.225-305.832-17.172V570.849z"/>
    <path fill="#2B4B9B" d="M916.617,570.849V31.462c-24.111,0.021-48.273,0.907-72.497,3.109
        c-117.013,20.531-224.011,83.879-341.439,109.25c-60.374,18.778-101.656,47.614-151.44,85.965c-0.406,0.25-0.834,0.468-1.241,0.73
        c-14.742,9.16-29.786,17.005-45.039,24.183v316.149H916.617z"/>
</g>
</svg>
