<?xml version="1.0" encoding="utf-8"?>
<!-- Generator: Adobe Illustrator 16.0.0, SVG Export Plug-In . SVG Version: 6.00 Build 0)  -->
<!DOCTYPE svg PUBLIC "-//W3C//DTD SVG 1.1//EN" "http://www.w3.org/Graphics/SVG/1.1/DTD/svg11.dtd">
<svg version="1.1" id="Layer_1" xmlns="http://www.w3.org/2000/svg" xmlns:xlink="http://www.w3.org/1999/xlink" x="0px" y="0px"
	 width="1224px" height="792px" viewBox="0 0 1224 792" enable-background="new 0 0 1224 792" xml:space="preserve">
<polyline fill="#C3C3C3" points="0,0.241 1224,0.241 1224,792 0,792 "/>
<g>
	<path fill="#FFFFFF" d="M0,588.817h326.583c0.843-2.413,1.532-4.819,1.831-7.219c17.41-12.627,43.094,5.363,62.312-9.898
		c43.339-53.211,160.636-64.765,219.639-27.493c15.24,15.226,30.556,29.958,45.72,44.61h91.27
		c5.278-10.092,10.459-19.556,16.505-25.118c55.017-92.957,56.396-111.29,169.066-111.29
		c78.523,11.184,153.279,99.307,209.399-2.486c11.155-11.146,23.501-18.264,34.496-25.047H0V588.817z"/>
	<path fill="#FFFFFF" d="M0,244.552h1103.98c-24.312-15.443-51.255-26.636-80.547-31.888
		c-71.139-1.781-118.952,10.85-182.582-23.021c-23.11-5.485-41.685,9.688-62.188,1.931c-37.425-35.367-93.024-49.959-139.458-71.2
		c-5.831-8.987-6.966-16.695-4.843-23.354H346.406c4.688,11.646,7.976,23.934-2.27,32.309
		c-92.279,21.96-196.842-6.103-293.81-32.309H0V244.552z"/>
	<path fill="#2B4B9B" d="M50.327,97.019C33.279,92.412,16.473,87.87,0,83.661v13.357H50.327z"/>
	<path fill="#2B4B9B" d="M736.488,53.192c6.276-2.502,19.033-9.107,34.128-18.126H372.665c-2.368,0.993-4.82,2-7.502,3.046
		c-9.747,13.268-24.55,28.01-24.55,44.779c1.572,4.36,3.808,9.188,5.793,14.127h287.956
		C643.81,67.399,718.321,58.798,736.488,53.192z"/>
	<path fill="#E52620" d="M1204.36,354.543c-24.406-43.982-58.45-83.355-100.38-109.991H0v180.324h1176.821
		C1199.563,410.845,1216.43,398.265,1204.36,354.543z"/>
	<path fill="#2B4B9B" d="M696.888,628.923c25.44,10.084,38.222-16.72,50.467-40.105h-91.27
		C669.895,602.15,683.563,615.421,696.888,628.923z"/>
	<path fill="#2B4B9B" d="M0,756.934h238.142c18.773-23.586,18.75-44.047,29.216-93.194c13.134-23.492,50.259-49.398,59.224-74.922H0
		V756.934z"/>
</g>
</svg>
