<?xml version="1.0" encoding="utf-8"?>
<!-- Generator: Adobe Illustrator 16.0.0, SVG Export Plug-In . SVG Version: 6.00 Build 0)  -->
<!DOCTYPE svg PUBLIC "-//W3C//DTD SVG 1.1//EN" "http://www.w3.org/Graphics/SVG/1.1/DTD/svg11.dtd">
<svg version="1.1" id="Layer_1" xmlns="http://www.w3.org/2000/svg" xmlns:xlink="http://www.w3.org/1999/xlink" x="0px" y="0px"
     width="1224px" height="792px" viewBox="0 0 1224 792" enable-background="new 0 0 1224 792" xml:space="preserve">
<polyline fill="#C3C3C3" points="0,0.241 1224,0.241 1224,792 0,792 "/>
<g>
    <rect x="612.956" y="217.399" fill="none" width="291.729" height="2.369"/>
    <rect x="320.755" y="451.168" fill="none" width="292.2" height="2.368"/>
    <path fill="#FFFFFF" d="M612.956,453.536h-292.2v123.236c38.969-34.688,79.932-56.146,141.037-26.557
        c38.622,41.892,58.349,88.092,65.386,136.59h85.777V453.536z"/>
    <rect x="904.685" y="9" fill="#FFFFFF" width="287.033" height="208.399"/>
    <path fill="#FFFFFF" d="M926.212,686.806c19.824-75.055,37.514-151.661,52.891-233.27h-74.418v233.27H926.212z"/>
    <path fill="#FFFFFF" d="M612.956,686.806v105.436h283.86c2.674-9.129,5.25-18.258,7.869-27.388v-78.048H612.956z"/>
    <polygon fill="#FFFFFF" points="320.755,451.168 320.755,219.769 33.238,219.769 33.238,453.536 320.755,453.536     "/>
    <polygon fill="#FFFFFF" points="612.956,219.769 612.956,451.168 612.956,453.536 904.685,453.536 904.685,451.168 
        904.685,219.769     "/>
    <path fill="#FFFFFF" d="M33.238,783.126c48.319-32.485,96.957-64.887,146.744-96.32H33.238V783.126z"/>
    <rect x="320.755" y="9" fill="#FFFFFF" width="292.2" height="208.399"/>
    <rect x="33.238" y="9" fill="#2C4C9B" width="287.518" height="208.399"/>
    <path fill="#2C4C9B" d="M33.238,453.536v233.27h146.744c23.646-14.933,47.474-29.7,71.8-44.052
        c24.645-21.597,46.49-45.978,68.974-65.981V453.536H33.238z"/>
    <rect x="320.755" y="219.769" fill="#2C4C9B" width="292.2" height="231.399"/>
    <rect x="320.755" y="217.399" fill="#2C4C9B" width="292.2" height="2.369"/>
    <rect x="612.956" y="9" fill="#2C4C9B" width="291.729" height="208.399"/>
    <rect x="612.956" y="453.536" fill="#2C4C9B" width="291.729" height="233.27"/>
    <path fill="#2C4C9B" d="M904.685,451.168h74.418c3.643-19.38,7.203-38.982,10.598-58.972c13.854-29.825,23.605-33.87,57.074-33.87
        c49.885,15.28,97.801,27.096,144.943,36.294V219.769H904.685V451.168z"/>
    <rect x="904.685" y="217.399" fill="#2C4C9B" width="287.033" height="2.369"/>
    <path fill="#2C4C9B" d="M904.685,764.854c7.426-25.919,14.615-51.907,21.527-78.048h-21.527V764.854z"/>
    <path fill="#2C4C9B" d="M527.178,686.806c4.973,34.245,3.685,69.611-1.953,105.436h87.73V686.806H527.178z"/>
</g>
</svg>
