<?xml version="1.0" encoding="utf-8"?>
<!-- Generator: Adobe Illustrator 16.0.0, SVG Export Plug-In . SVG Version: 6.00 Build 0)  -->
<!DOCTYPE svg PUBLIC "-//W3C//DTD SVG 1.1//EN" "http://www.w3.org/Graphics/SVG/1.1/DTD/svg11.dtd">
<svg version="1.1" id="Layer_1" xmlns="http://www.w3.org/2000/svg" xmlns:xlink="http://www.w3.org/1999/xlink" x="0px" y="0px"
	 width="1224px" height="792px" viewBox="0 0 1224 792" enable-background="new 0 0 1224 792" xml:space="preserve">
<polyline fill="#C3C3C3" points="0,0.241 1224,0.241 1224,792 0,792 "/>
<g>
	<polygon fill="#F2E500" points="187.806,0.241 55.744,136.852 55.744,362.611 426.086,0.241 	"/>
	<path fill="#F2E500" d="M250.11,420.52c69.792,4.819,141.333,6.125,218.417,6.125c0.924,0.292,1.729,0.625,2.618,0.931
		L904.176,0.241H670.388L250.11,420.52z"/>
	<path fill="#F2E500" d="M861.086,792c5.474-26.433,11.613-52.214,18.476-76.591L801.179,792H861.086z"/>
	<path fill="#F2E500" d="M1169.923,652.362v-220.73l-131.902,128.915C1081.358,598.44,1124.835,627.414,1169.923,652.362z"/>
	<path fill="#F2E500" d="M574.378,771.235l595.544-605.824V0.241h-21.696L552.112,604.995
		C561.78,659.446,569.031,714.979,574.378,771.235z"/>
	<polygon fill="#E42620" points="55.744,0.241 55.744,136.852 187.806,0.241 	"/>
	<path fill="#E42620" d="M426.086,0.241L55.744,362.611v33.072c65.263,12.752,129.054,20.322,194.366,24.837L670.388,0.241H426.086z
		"/>
	<path fill="#E42620" d="M533.361,513.154c7.244,30.142,13.251,60.866,18.751,91.842L1148.227,0.241H904.176l-433.03,427.334
		C513.962,442.243,519.109,470.858,533.361,513.154z"/>
	<path fill="#E42620" d="M576.476,792h224.703l78.383-76.591c32.517-115.72,81.202-199.048,151.847-160.6
		c2.197,1.973,4.404,3.806,6.612,5.736l131.902-128.915V165.41L574.378,771.235C575.031,778.164,575.865,785.041,576.476,792z"/>
</g>
</svg>
