<?xml version="1.0" encoding="utf-8"?>
<!-- Generator: Adobe Illustrator 16.0.0, SVG Export Plug-In . SVG Version: 6.00 Build 0)  -->
<!DOCTYPE svg PUBLIC "-//W3C//DTD SVG 1.1//EN" "http://www.w3.org/Graphics/SVG/1.1/DTD/svg11.dtd">
<svg version="1.1" id="Layer_1" xmlns="http://www.w3.org/2000/svg" xmlns:xlink="http://www.w3.org/1999/xlink" x="0px" y="0px"
	 width="1224px" height="792px" viewBox="0 0 1224 792" enable-background="new 0 0 1224 792" xml:space="preserve">
<polyline fill="#C3C3C3" points="0,0.241 1224,0.241 1224,792 0,792 "/>
<g>
	<path fill="#FFFFFF" d="M463.609,108.377h190.37c0.969-1.485,2.052-2.863,3.014-4.376c6.558-18.335,12.44-36.003,22.112-52.904
		c23.47-19.462,39.957-35.522,52.16-50.855H273.507V652.36c62.408,34.533,127.931,61.507,200.577,94.263
		c27.17,13.485,53.058,28.683,77.66,45.378h398.749c-26.081-52.53-62.551-92.924-103.626-128.902H463.609V108.377z"/>
	<path fill="#2A4B9A" d="M506.922,274.076c47.971-58.937,106.16-103.066,147.056-165.699h-190.37v554.721h383.258
		c-49.17-43.085-104.925-79.813-157.546-123.222C679.772,463.429,449.861,381.183,506.922,274.076z"/>
</g>
</svg>
