<?xml version="1.0" encoding="utf-8"?>
<!-- Generator: Adobe Illustrator 16.0.0, SVG Export Plug-In . SVG Version: 6.00 Build 0)  -->
<!DOCTYPE svg PUBLIC "-//W3C//DTD SVG 1.1//EN" "http://www.w3.org/Graphics/SVG/1.1/DTD/svg11.dtd">
<svg version="1.1" id="Layer_1" xmlns="http://www.w3.org/2000/svg" xmlns:xlink="http://www.w3.org/1999/xlink" x="0px" y="0px"
     width="1224px" height="792px" viewBox="0 0 1224 792" enable-background="new 0 0 1224 792" xml:space="preserve">
<polyline fill="#C3C3C3" points="0,0.241 1224,0.241 1224,792 0,792 "/>
<g>
    <path fill="#F2E500" d="M389.004,525.762c-2.416,2.991-4.895,5.966-7.565,8.86c-32.308,42.992-8.797,65.511-57.578,96.284
        c-31.06,27.732-81.024,135.436-29.908,160.609c11.228-1.279,22.455-2.495,33.619-3.679
        c86.591-27.613,195.061-33.619,195.061-139.594c6.301-12.132,10.572-24.095,13.426-36.01
        C474.635,610.434,420.799,576.534,389.004,525.762z"/>
    <path fill="#F2E500" d="M496.466,47.003c-11.931,66.23-23.831,132.461-35.746,198.699c24.278-12.651,51.58-19.784,80.464-19.784
        c19.832,0,38.896,3.392,56.779,9.589c30.964-38.785,74.915-71.292,135.818-104.152C812.248,94.489,881.886,47.658,952.019,0.485
        H521.48C510.621,9.345,502.72,23.084,496.466,47.003z"/>
    <path fill="#000100" d="M460.72,245.701c-5.534,30.789-11.092,61.569-16.619,92.357c-6.989,66.966-12.243,134.7-55.098,187.703
        c31.795,50.772,85.631,84.672,147.054,86.472c11.524-48.03-0.711-95.3-2.934-149.583c2.494-102.145,20.151-171.19,64.84-227.145
        c-17.883-6.197-36.947-9.589-56.779-9.589C512.3,225.917,484.998,233.051,460.72,245.701z"/>
</g>
</svg>
